<svg width="136" height="196" viewBox="0 0 136 196" fill="none" xmlns="http://www.w3.org/2000/svg">
<path d="M83.9659 30.8097C91.9659 28.4097 102.866 33.0097 109.466 41.4097C111.466 44.0097 113.366 46.6097 115.066 49.3097C117.866 53.5097 114.966 63.0097 110.366 64.9097C106.266 66.6097 103.966 70.2097 100.366 73.3097C111.566 71.1097 124.866 80.2097 129.066 88.7097C130.166 90.9097 130.766 93.4097 131.466 95.7097C132.166 98.2097 129.666 99.0097 128.366 99.6097C122.566 102.51 119.866 108.81 114.466 112.21C113.466 112.81 112.666 113.51 111.466 114.41C119.766 116.81 128.266 118.91 133.066 127.01C133.066 127.01 132.766 127.31 132.566 127.51C139.066 131.51 134.166 137.51 132.866 140.21C130.166 145.81 126.466 151.51 120.566 155.21C109.366 162.21 97.2658 167.81 86.2658 175.01C79.0658 179.81 71.7659 184.91 66.9659 192.61C64.4659 196.51 56.0658 196.81 50.2658 193.51C42.5658 189.11 37.9659 182.31 33.8659 174.71C31.6659 170.51 35.3659 168.91 36.3659 166.11C36.7659 164.91 37.3659 163.81 38.4659 161.31C32.6659 165.81 27.6659 169.11 23.3659 173.31C19.7659 176.81 15.2659 179.11 12.0659 183.11C10.5659 185.01 5.76582 186.71 2.76582 182.81C2.36582 182.31 1.16582 182.51 0.26582 182.51C-9.13418 182.91 -13.2342 176.11 -17.8342 169.71C-23.8342 161.21 -17.4341 155.21 -13.6341 148.81C-10.9341 144.21 -7.63408 140.01 -4.63408 135.61C-7.93408 134.61 -10.3342 136.31 -12.8342 137.61C-21.2342 142.11 -30.3341 140.41 -37.1341 133.61C-43.0341 127.71 -47.1341 121.01 -49.0341 112.81C-49.6341 110.21 -49.1342 108.01 -47.2342 106.01C-41.4342 99.8097 -35.7342 93.4097 -29.8342 87.2097C-28.1342 85.4097 -27.8342 83.8097 -29.2342 82.0097C-34.4342 75.5097 -32.2341 71.0097 -26.5341 65.6097C-18.1341 57.6097 -11.0342 48.2097 -3.33416 39.5097C3.46584 31.8097 11.6658 25.9097 20.7658 21.1097C21.2658 20.8097 22.0658 20.6097 22.1658 20.2097C23.6658 14.2097 28.2658 14.7097 32.2658 16.0097C38.2658 17.9097 40.5659 13.5097 43.8659 10.5097C46.9659 7.60972 49.9659 4.60974 53.1658 1.70974C55.8658 -0.790263 65.4659 0.00973082 70.0659 3.60973C78.9659 10.5097 85.6659 18.5097 83.9659 30.8097Z" fill="#E0E0E0"/>
</svg>
