<svg width="91" height="321" viewBox="0 0 91 321" fill="none" xmlns="http://www.w3.org/2000/svg">
<path d="M89.1701 210.28C90.7701 230.58 90.27 250.68 87.07 270.78C85.77 278.98 85.17 288.18 88.07 296.68C89.27 300.28 86.37 301.98 83.97 303.58C66.5701 314.88 47.37 319.88 26.87 320.38C2.87004 320.98 -21.03 319.88 -44.8299 317.08C-55.63 315.78 -66.0299 319.78 -76.8299 319.78C-91.3299 319.78 -105.33 317.58 -116.13 306.88C-122.73 300.38 -124.23 290.58 -123.73 282.48C-122.93 268.78 -126.03 255.58 -125.13 241.78C-123.13 211.28 -119.83 162.28 -113.63 132.18C-110.33 116.38 -108.63 99.4799 -109.93 82.8799C-110.13 79.6799 -109.23 77.78 -105.43 78.68C-100.33 79.78 -97.13 74.98 -93.03 74.18C-86.83 72.98 -80.03 74.38 -73.93 72.98C-63.03 70.38 -53.13 72.78 -42.73 75.98C-32.83 78.98 -22.33 75.08 -12.13 74.48C3.77003 73.58 19.2701 74.9799 33.97 80.8799C50.97 87.6799 69.0701 92.8799 81.6701 107.78C88.0701 115.28 88.2701 124.68 88.6701 133.28C89.8701 152.38 89.1701 190.88 89.1701 210.28Z" fill="#FCB065"/>
<path d="M-94.23 74.3801C-92.33 67.6801 -83.83 61.2802 -75.63 54.6802C-56.03 38.9802 -35.53 24.4802 -14.13 11.4802C-7.32996 7.38018 0.0700531 3.88015 7.67005 1.58015C13.87 -0.319846 20.27 2.88017 26.47 4.78017C39.47 8.78017 50.87 16.8802 63.77 20.7802C73.37 23.6802 75.57 30.0802 77.47 37.6802C78.47 41.5802 76.97 45.3802 75.47 48.7802C68.57 63.5802 60.87 77.8802 52.27 91.7802C48.27 98.1802 45.27 105.38 40.47 111.28C34.87 118.28 30.2701 126.18 23.1701 131.98C15.9701 137.88 7.97002 142.08 -1.22997 144.48C-11.43 147.08 -21.93 148.88 -31.63 153.08C-35.83 154.88 -40.33 153.78 -44.63 154.18C-47.23 154.38 -49.53 155.38 -51.93 155.98C-59.93 157.68 -67.63 154.48 -75.53 154.78C-79.03 154.88 -82.33 150.48 -84.03 146.68C-88.23 137.28 -93.13 128.08 -95.73 118.28C-99.23 105.18 -100.43 91.6801 -94.23 74.3801ZM31.37 100.98C28.97 100.88 28.97 103.18 28.27 104.78C29.27 103.48 30.27 102.18 31.37 100.98C33.67 99.4802 35.27 97.3802 35.97 94.5802C34.37 96.7802 32.87 98.8802 31.37 100.98ZM14.1701 118.48C13.37 118.48 12.4701 118.58 11.6701 118.58C11.87 119.08 12.17 119.48 12.37 119.98C12.97 119.48 13.57 119.08 14.27 118.58C16.67 116.68 19.07 114.78 21.47 112.88C17.57 113.18 16.2701 116.28 14.1701 118.48Z" fill="#2BB0A8"/>
</svg>
