<svg width="72" height="187" viewBox="0 0 72 187" fill="none" xmlns="http://www.w3.org/2000/svg">
<path d="M118.213 44.1815C121.313 50.0815 119.713 59.9815 118.413 69.7815C115.213 93.3815 110.813 116.681 104.613 139.581C102.613 146.881 99.9128 154.081 96.2128 160.681C93.2128 166.081 86.7128 168.081 81.3128 170.781C69.8128 176.581 56.6128 178.481 45.3128 184.281C36.9128 188.581 31.2128 185.681 24.9128 181.681C21.7128 179.681 20.2128 176.081 19.0128 172.781C14.0128 158.181 10.0128 143.281 6.71283 128.181C5.21283 121.181 2.61276 114.281 2.01276 107.181C1.31276 98.6815 -0.78719 90.2815 0.31281 81.6815C1.41281 72.8815 4.11281 64.7815 8.81281 57.1815C14.0128 48.6815 20.1128 40.6815 24.0128 31.3815C25.7128 27.3815 29.5128 25.1815 32.2128 22.0815C33.9128 20.1815 34.7128 18.0815 36.0128 16.0815C40.3128 9.68149 47.7128 6.78148 52.9128 1.48148C55.2128 -0.918519 60.4128 -0.0185184 64.0128 1.48148C73.0128 5.18148 82.4129 8.2815 90.6129 13.2815C101.413 19.8815 111.013 28.3815 118.213 44.1815ZM14.8128 108.282C16.5128 106.682 15.0128 105.181 14.4128 103.681C14.6128 105.181 14.7128 106.682 14.8128 108.282C14.2128 110.882 14.5128 113.281 15.9128 115.681C15.5128 113.181 15.2128 110.682 14.8128 108.282ZM15.1129 84.9815C15.6129 84.3815 16.2128 83.8815 16.7128 83.2815C16.2128 83.0815 15.8128 82.9815 15.3128 82.7815C15.2128 83.4815 15.1128 84.2815 15.0128 84.9815C14.6128 87.8815 14.2128 90.7815 13.8128 93.5815C16.2128 90.8815 15.1129 87.8815 15.1129 84.9815Z" fill="#120D29"/>
<path d="M58.8128 117.281C57.6128 117.281 56.9129 116.981 57.1129 116.181C57.5129 114.681 58.8129 114.281 60.1129 114.281C60.8129 114.281 61.6128 114.581 61.4128 115.481C61.0128 116.981 59.7128 117.181 58.8128 117.281Z" fill="#FF6F54"/>
<path d="M63.4128 110.281C63.9128 108.581 64.9128 107.581 66.4128 107.481C67.0128 107.481 68.0128 108.281 67.5128 109.181C66.5128 110.781 65.1128 110.881 63.4128 110.281Z" fill="#FF6F54"/>
<path d="M69.8129 115.881C71.3129 114.681 71.8129 112.881 73.7129 113.581C74.5129 113.881 74.8129 114.981 74.3129 115.481C73.2129 116.581 71.8129 116.681 69.8129 115.881Z" fill="#FF6F54"/>
<path d="M65.4128 116.481C64.8128 116.281 63.4129 116.681 63.6129 115.581C63.8129 114.281 65.2128 113.881 66.4128 113.781C67.3128 113.781 67.8129 114.281 67.6129 115.181C67.5129 116.481 66.6128 116.681 65.4128 116.481Z" fill="#FF6F54"/>
<path d="M49.6129 109.482C50.4129 108.882 50.4129 107.182 52.1129 107.782C52.7129 107.982 53.5128 108.082 53.5128 108.982C53.5128 109.682 53.0128 110.182 52.4128 110.482C51.1128 110.982 50.3129 110.682 49.6129 109.482Z" fill="#FF6F54"/>
<path d="M60.0128 102.081C59.6128 102.881 59.4129 103.781 58.3129 103.781C57.1129 103.781 56.6129 103.181 56.6129 101.981C56.6129 101.081 56.8128 100.281 58.0128 100.481C58.8128 100.681 59.6128 101.081 60.0128 102.081Z" fill="#FF6F54"/>
<path d="M70.9128 129.582C71.3128 128.682 71.6129 127.482 72.8129 127.582C73.6129 127.682 74.5128 128.482 74.4128 129.382C74.3128 130.482 73.5129 130.982 72.3129 130.882C71.6129 130.882 70.9128 130.782 70.9128 129.582Z" fill="#FF6F54"/>
<path d="M59.8128 120.281C60.6128 120.381 61.2128 120.781 61.0128 121.381C60.6128 122.581 59.9128 123.581 58.4128 123.481C57.6128 123.481 57.4128 122.881 57.5128 122.181C57.7128 120.781 59.0128 120.781 59.8128 120.281Z" fill="#FF6F54"/>
<path d="M57.8129 110.682C56.8129 110.782 56.3128 110.182 56.4128 109.382C56.6128 108.282 57.5129 107.682 58.6129 107.682C59.4129 107.682 60.0128 108.282 59.9128 109.182C59.6128 110.182 59.0129 110.782 57.8129 110.682Z" fill="#FF6F54"/>
<path d="M73.9129 122.182C73.4129 123.382 72.7129 124.082 71.6129 123.882C70.9129 123.782 70.0129 123.282 70.4129 122.382C70.7129 121.382 71.4129 120.582 72.7129 120.682C73.6129 120.882 73.7129 121.682 73.9129 122.182Z" fill="#FF6F54"/>
<path d="M49.6129 115.482C50.8129 114.982 51.9129 113.482 53.1129 114.982C53.8129 115.982 52.9129 116.782 52.1129 117.182C50.7129 117.782 49.8129 117.182 49.6129 115.482Z" fill="#FF6F54"/>
<path d="M65.1129 130.581C64.6129 130.481 63.9129 130.181 64.1129 129.181C64.2129 128.181 64.8128 127.281 65.9128 127.281C66.8128 127.281 67.4129 127.881 67.3129 128.881C67.2129 129.981 66.6129 130.581 65.1129 130.581Z" fill="#FF6F54"/>
<path d="M65.8128 123.481C65.0128 123.281 64.2128 123.081 64.3128 122.081C64.5128 120.781 65.7128 120.781 66.7128 120.581C67.6128 120.381 67.7128 121.081 67.7128 121.681C67.6128 122.981 66.9128 123.481 65.8128 123.481Z" fill="#FF6F54"/>
<path d="M56.9128 130.281C57.1128 129.281 57.8128 128.681 58.9128 128.581C59.8128 128.481 60.2128 129.181 60.2128 129.881C60.1128 130.881 59.4128 131.381 58.4128 131.381C57.6128 131.281 56.8128 131.381 56.9128 130.281Z" fill="#FF6F54"/>
<path d="M59.0128 94.7815C57.9128 95.5815 56.9129 95.6815 55.8129 95.2815C55.5129 93.9815 56.2129 93.1815 57.2129 92.8815C58.4129 92.6815 58.6128 93.8815 59.0128 94.7815Z" fill="#FF6F54"/>
</svg>
