<svg width="87" height="273" viewBox="0 0 87 273" fill="none" xmlns="http://www.w3.org/2000/svg">
<path d="M39.8555 169.17C44.2555 157.17 51.2555 146.37 55.1555 134.27C61.7555 113.67 72.6555 95.5695 85.1555 78.2695C88.4555 73.7695 91.0555 68.2695 96.0555 65.7695C99.5555 64.0695 102.256 57.5695 107.156 61.6695C112.556 66.2695 116.656 72.4695 119.156 78.9695C126.256 97.0695 130.055 116.27 134.255 135.17C136.955 147.37 138.556 159.77 143.156 171.47C145.956 178.67 147.656 186.37 149.356 193.97C151.356 202.57 151.255 211.57 153.755 220.17C156.655 230.07 157.855 240.17 152.955 250.17C148.155 259.97 139.855 265.37 130.656 269.57C122.656 273.27 114.056 273.57 106.656 269.07C98.0555 263.87 90.0555 257.57 81.0555 252.77C70.1555 246.97 63.3555 236.469 53.9555 229.07C44.5555 221.67 37.9555 212.97 36.6555 205.77C33.2555 190.07 35.9555 179.77 39.8555 169.17ZM137.755 251.969C141.455 250.369 143.056 246.27 141.656 241.57C142.256 245.77 137.955 247.969 137.755 251.969ZM81.1555 106.57C80.2555 108.67 79.6555 110.27 78.8555 112.27C82.6555 111.57 82.1555 109.47 81.1555 106.57ZM107.856 99.9695C107.556 98.3695 107.455 97.3695 107.255 95.9695C106.455 97.4695 106.156 98.4695 107.856 99.9695ZM63.9555 155.77C63.3555 157.07 62.8555 157.87 62.2555 159.27C65.1555 158.77 64.3555 157.47 63.9555 155.77ZM141.056 234.07C141.256 234.07 141.356 233.97 141.556 233.97C141.356 233.07 141.155 232.17 140.955 231.17C140.855 231.17 140.756 231.17 140.656 231.17C140.756 232.27 140.956 233.17 141.056 234.07ZM141.656 237.97C141.556 237.67 141.456 237.47 141.356 237.17C141.456 237.47 141.556 237.67 141.656 237.97Z" fill="#EBBCB2"/>
<path d="M91.0814 266.069C86.6814 263.369 82.2814 260.469 78.0814 257.569C71.8814 253.369 65.4814 249.069 58.8814 245.469C50.3814 240.969 43.7814 234.169 37.3814 227.669C33.2814 223.469 29.0814 219.169 24.4814 215.569C12.1814 205.869 3.88139 194.669 2.28139 185.569C-2.21861 164.669 1.68136 151.369 6.38136 138.569C8.98136 131.569 12.2814 124.769 15.4814 118.169C19.1814 110.569 22.9814 102.769 25.5814 94.6694C32.8814 71.9694 44.5814 50.0694 63.5814 23.6694C64.4814 22.3694 65.3814 21.0694 66.2814 19.7694C69.3814 15.0694 72.5814 10.1694 77.7814 7.66942C78.9814 7.06942 80.0814 5.96942 81.2814 4.76942C84.1814 1.96942 87.7814 -1.53058 92.7814 2.66942C99.3814 8.16942 104.681 15.8694 108.181 24.9694C116.281 45.6694 121.081 67.7694 125.781 89.0694C126.281 91.3694 126.781 93.7694 127.281 96.0694C128.181 100.169 128.981 104.269 129.781 108.369C131.981 119.469 134.181 130.969 138.381 141.769C141.581 150.069 143.681 158.969 145.681 167.469L146.281 170.269C147.381 175.169 148.081 180.269 148.681 185.069C149.381 191.069 150.181 197.269 151.881 203.169C154.981 213.769 157.681 227.669 150.781 241.769C144.281 255.169 132.681 261.869 122.181 266.769C116.881 269.169 111.581 270.469 106.581 270.469C101.081 270.369 95.7814 268.869 91.0814 266.069ZM82.6814 6.06942C81.3813 7.26942 80.0814 8.56942 78.5814 9.26942C73.8814 11.5694 70.7814 16.1694 67.8814 20.6694C66.9814 21.9694 66.0814 23.3694 65.1814 24.6694C46.2813 50.8694 34.5814 72.5694 27.3814 95.0694C24.7814 103.369 20.8814 111.269 17.0814 118.869C13.8814 125.369 10.5814 132.169 8.08137 139.069C3.48137 151.669 -0.218627 164.669 4.08137 184.969C5.68137 193.569 13.6814 204.369 25.5814 213.769C30.2814 217.469 34.5813 221.869 38.6813 226.069C44.9813 232.469 51.4813 239.169 59.6813 243.569C66.4813 247.169 72.8814 251.569 79.0814 255.769C83.2814 258.569 87.5814 261.569 91.9814 264.169C100.481 269.369 110.881 269.569 121.281 264.769C131.481 260.069 142.681 253.569 148.981 240.769C155.581 227.269 152.981 213.769 149.981 203.569C148.181 197.469 147.381 191.169 146.681 185.069C146.081 180.269 145.481 175.269 144.381 170.469L143.781 167.669C141.781 159.169 139.781 150.369 136.581 142.169C132.281 131.169 130.081 119.569 127.881 108.369C127.081 104.369 126.281 100.169 125.381 96.1694C124.881 93.8694 124.381 91.4694 123.881 89.1694C119.281 67.9694 114.481 45.9694 106.381 25.3694C102.981 16.5694 97.7814 9.16942 91.4814 3.86942C90.2814 2.86942 89.1814 2.36942 88.1814 2.36942C86.3813 2.66942 84.7813 4.06942 82.6814 6.06942Z" fill="#EBBCB2"/>
</svg>
