<svg width="71" height="188" viewBox="0 0 71 188" fill="none" xmlns="http://www.w3.org/2000/svg">
<path d="M68.6147 44.9566C71.7147 50.8566 70.1146 60.7566 68.8146 70.5566C65.6146 94.1566 61.2147 117.457 55.0147 140.357C53.0147 147.657 50.3147 154.857 46.6147 161.457C43.6147 166.857 37.1147 168.857 31.7147 171.557C20.2147 177.357 7.01466 179.257 -4.28534 185.057C-12.6853 189.357 -18.3854 186.457 -24.6854 182.457C-27.8854 180.457 -29.3854 176.857 -30.5854 173.557C-35.5854 158.957 -39.5853 144.057 -42.8853 128.957C-44.3853 121.957 -46.9854 115.057 -47.5854 107.957C-48.2854 99.4566 -50.3853 91.0566 -49.2853 82.4566C-48.1853 73.6566 -45.4853 65.5566 -40.7853 57.9566C-35.5853 49.4566 -29.4854 41.4566 -25.5854 32.1566C-23.8854 28.1566 -20.0853 25.9566 -17.3853 22.8566C-15.6853 20.9566 -14.8854 18.8566 -13.5854 16.8566C-9.28539 10.4566 -1.88536 7.55663 3.31464 2.25663C5.61464 -0.143372 10.8146 0.756628 14.4146 2.25663C23.4146 5.95663 32.8147 9.05665 41.0147 14.0566C51.8147 20.6566 61.4147 29.1566 68.6147 44.9566ZM-34.7853 109.057C-33.0853 107.457 -34.5854 105.957 -35.1854 104.457C-34.9854 105.957 -34.8853 107.457 -34.7853 109.057C-35.3853 111.657 -35.0854 114.057 -33.6854 116.457C-34.0854 113.957 -34.3853 111.457 -34.7853 109.057ZM-34.4853 85.7566C-33.9853 85.1566 -33.3853 84.6566 -32.8853 84.0566C-33.3853 83.8567 -33.7853 83.7566 -34.2853 83.5566C-34.3853 84.2566 -34.4854 85.0566 -34.5854 85.7566C-34.9854 88.6566 -35.3853 91.5566 -35.7853 94.3566C-33.3853 91.6566 -34.4853 88.6566 -34.4853 85.7566Z" fill="#120D29"/>
<path d="M9.21469 118.057C8.01469 118.057 7.31474 117.757 7.51474 116.957C7.91474 115.457 9.21474 115.057 10.5147 115.057C11.2147 115.057 12.0147 115.357 11.8147 116.257C11.4147 117.757 10.1147 117.957 9.21469 118.057Z" fill="#FF6F54"/>
<path d="M26.4147 116.957C27.7147 115.957 27.7147 113.657 29.9147 114.457C30.7147 114.757 31.4147 115.557 30.8147 116.357C29.8147 117.657 28.4147 117.957 26.4147 116.957Z" fill="#FF6F54"/>
<path d="M13.8147 111.057C14.3147 109.357 15.3147 108.357 16.8147 108.257C17.4147 108.257 18.4147 109.057 17.9147 109.957C16.9147 111.557 15.5147 111.657 13.8147 111.057Z" fill="#FF6F54"/>
<path d="M20.2147 116.657C21.7147 115.457 22.2147 113.657 24.1147 114.357C24.9147 114.657 25.2147 115.757 24.7147 116.257C23.6147 117.357 22.2147 117.457 20.2147 116.657Z" fill="#FF6F54"/>
<path d="M15.8147 117.257C15.2147 117.057 13.8147 117.457 14.0147 116.357C14.2147 115.057 15.6147 114.657 16.8147 114.557C17.7147 114.557 18.2147 115.057 18.0147 115.957C17.9147 117.257 17.0147 117.457 15.8147 117.257Z" fill="#FF6F54"/>
<path d="M0.0147705 110.257C0.814771 109.657 0.81477 107.957 2.51477 108.557C3.11477 108.757 3.91467 108.857 3.91467 109.757C3.91467 110.457 3.4147 110.957 2.8147 111.257C1.5147 111.757 0.71477 111.457 0.0147705 110.257Z" fill="#FF6F54"/>
<path d="M10.4147 102.857C10.0147 103.657 9.81472 104.557 8.71472 104.557C7.51472 104.557 7.01477 103.957 7.01477 102.757C7.01477 101.857 7.21467 101.057 8.41467 101.257C9.21467 101.457 10.0147 101.857 10.4147 102.857Z" fill="#FF6F54"/>
<path d="M21.3147 130.357C21.7147 129.457 22.0147 128.257 23.2147 128.357C24.0147 128.457 24.9147 129.257 24.8147 130.157C24.7147 131.257 23.9147 131.757 22.7147 131.657C22.0147 131.657 21.3147 131.557 21.3147 130.357Z" fill="#FF6F54"/>
<path d="M10.2147 121.057C11.0147 121.157 11.6146 121.557 11.4146 122.157C11.0146 123.357 10.3147 124.357 8.81465 124.257C8.01465 124.257 7.81463 123.657 7.91463 122.957C8.11463 121.557 9.41468 121.557 10.2147 121.057Z" fill="#FF6F54"/>
<path d="M8.21471 111.457C7.21471 111.557 6.71468 110.957 6.81468 110.157C7.01468 109.057 7.91476 108.457 9.01476 108.457C9.81476 108.457 10.4147 109.057 10.3147 109.957C10.0147 110.957 9.41471 111.557 8.21471 111.457Z" fill="#FF6F54"/>
<path d="M24.3147 122.957C23.8147 124.157 23.1148 124.857 22.0148 124.657C21.3148 124.557 20.4147 124.057 20.8147 123.157C21.1147 122.157 21.8148 121.357 23.1148 121.457C24.0148 121.657 24.1147 122.457 24.3147 122.957Z" fill="#FF6F54"/>
<path d="M0.0147705 116.257C1.21477 115.757 2.31477 114.257 3.51477 115.757C4.21477 116.757 3.31477 117.557 2.51477 117.957C1.11477 118.557 0.214771 117.957 0.0147705 116.257Z" fill="#FF6F54"/>
<path d="M15.5148 131.357C15.0148 131.257 14.3148 130.957 14.5148 129.957C14.6148 128.957 15.2147 128.057 16.3147 128.057C17.2147 128.057 17.8147 128.657 17.7147 129.657C17.6147 130.757 17.0148 131.357 15.5148 131.357Z" fill="#FF6F54"/>
<path d="M29.4147 124.257C28.8147 124.057 27.7147 123.957 27.9147 122.757C28.1147 121.357 29.4148 121.757 30.2148 121.657C31.0148 121.457 31.7148 122.257 31.6148 123.057C31.4148 123.957 30.6147 124.357 29.4147 124.257Z" fill="#FF6F54"/>
<path d="M16.2147 124.257C15.4147 124.057 14.6147 123.857 14.7147 122.857C14.9147 121.557 16.1147 121.557 17.1147 121.357C18.0147 121.157 18.1147 121.857 18.1147 122.457C18.0147 123.757 17.3147 124.257 16.2147 124.257Z" fill="#FF6F54"/>
<path d="M7.31465 131.057C7.51465 130.057 8.21465 129.457 9.31465 129.357C10.2146 129.257 10.6147 129.957 10.6147 130.657C10.5147 131.657 9.81465 132.157 8.81465 132.157C8.01465 132.057 7.21465 132.157 7.31465 131.057Z" fill="#FF6F54"/>
<path d="M9.41467 95.5566C8.31467 96.3566 7.31472 96.4566 6.21472 96.0566C5.91472 94.7566 6.61475 93.9566 7.61475 93.6566C8.81475 93.4566 9.01467 94.6566 9.41467 95.5566Z" fill="#FF6F54"/>
</svg>
