<svg width="24" height="24" viewBox="0 0 24 24" fill="none" xmlns="http://www.w3.org/2000/svg">
<path opacity="0.1" d="M12 2C6.47 2 2 6.47 2 12C2 17.52 6.47 22 12 22C17.52 22 22 17.52 22 12C22 6.47 17.52 2 12 2Z" fill="black"/>
<path fill-rule="evenodd" clip-rule="evenodd" d="M15.7 9.28997C16.09 9.67997 16.09 10.31 15.7 10.7L11.7 14.7C11.3 15.09 10.67 15.09 10.28 14.7L8.27 12.7C7.87 12.3 7.87 11.67 8.27 11.28C8.66 10.88 9.29 10.88 9.68 11.28L10.97 12.57L14.26 9.26997C14.65 8.86997 15.28 8.86997 15.67 9.26997L15.7 9.28997Z" fill="black"/>
</svg>
