<svg width="528" height="371" viewBox="0 0 528 371" fill="none" xmlns="http://www.w3.org/2000/svg">
<path d="M20.7 278.2C18.7 284.2 25.1 291.6 34.9 294.8C44.7 298 54.3 295.8 56.2 289.9L57.4 286.2C59.4 280.2 53 272.8 43.2 269.6C33.4 266.4 23.8 268.6 21.9 274.5L20.7 278.2Z" fill="#B07F18"/>
<path d="M57.4525 286.098C59.3983 280.168 53.0213 272.751 43.2089 269.531C33.3966 266.311 23.8646 268.507 21.9187 274.436C19.9728 280.366 26.3499 287.783 36.1623 291.003C45.9746 294.223 55.5066 292.027 57.4525 286.098Z" fill="#EFBA4D"/>
<path d="M53.652 284.85C55.1846 280.18 50.1741 274.342 42.4606 271.811C34.7471 269.28 27.2517 271.013 25.7191 275.684C24.1865 280.354 29.1971 286.191 36.9106 288.723C44.624 291.254 52.1194 289.52 53.652 284.85Z" fill="#EBA920"/>
<path d="M44.3001 285.9L43.8001 287.5L32.1001 283.7L32.5001 282.3H32.8001C35.5001 282.1 36.2001 281.1 36.4001 279.7L33.7001 278.8L34.2001 277.2L36.6001 278C36.7001 276.9 36.9001 275.7 38.0001 275C38.8001 274.5 39.9001 274.3 41.1001 274.4C43.8001 274.7 46.3001 276.4 46.6001 276.5L45.0001 277.6C44.5001 277.3 42.8001 276.3 41.5001 276.2C41.0001 276.1 40.6001 276.2 40.2001 276.5C39.4001 277 39.3001 277.9 39.2001 279L43.1001 280.3L42.6001 281.9L39.0001 280.7C38.8001 281.8 38.3001 282.9 36.7001 283.5L44.3001 285.9Z" fill="#B07F18"/>
<path d="M404.5 142.2C395.3 159.1 410.5 185 438.3 200.1C466.1 215.2 496.1 213.8 505.3 196.9L511 186.4C520.2 169.5 505 143.6 477.2 128.5C449.4 113.4 419.4 114.8 410.2 131.7L404.5 142.2Z" fill="#B07F18"/>
<path d="M511.046 186.465C520.224 169.577 505.121 143.636 477.314 128.525C449.507 113.415 419.525 114.855 410.347 131.743C401.17 148.632 416.273 174.572 444.08 189.683C471.887 204.794 501.869 203.353 511.046 186.465Z" fill="#EFBA4D"/>
<path d="M500.238 180.592C507.438 167.343 495.571 146.983 473.733 135.116C451.894 123.248 428.355 124.368 421.155 137.617C413.956 150.865 425.823 171.226 447.661 183.093C469.499 194.96 493.039 193.84 500.238 180.592Z" fill="#EBA920"/>
<path d="M471.3 178.5L468.8 183L436 165.2L438.1 161.4L438.9 161.5C447.3 162.4 449.8 159.8 451.2 155.8L443.4 151.6L445.9 147.1L452.6 150.8C453.5 147.4 454.8 144.2 458.6 142.5C461.2 141.3 464.6 141.3 468.3 142.4C476.1 144.7 483 151.2 483.8 151.9L478.3 154.2C476.9 152.9 472.4 149.1 468.6 148C467 147.5 465.8 147.6 464.5 148.1C461.9 149.3 461 152 460.3 155L471.5 161.1L469 165.6L458.8 160.1C457.5 163.3 455.4 166.2 450.4 167.4L471.3 178.5Z" fill="#B07F18"/>
<path d="M118.9 314.7C118.9 314.7 57.8001 282.9 59.7001 249.6C61.6001 216.3 42.5001 183.8 48.5001 159C54.5001 134.2 69.5001 116 90.5001 95.5999C111.5 75.1999 134.3 62.1999 157.4 67.1999C180.5 72.1999 220 49.9999 237.3 45.0999C254.6 40.1999 271.5 36.4999 288.5 50.2999C305.5 64.0999 324.2 72.8999 335.9 95.4999C347.6 118.1 337.5 145.6 342.5 158.9C347.5 172.2 362.5 190.4 366.5 200.3C370.5 210.2 376.9 255.1 376.7 263.6C376.5 272.1 363.5 300.1 342.5 310.1C321.5 320.1 281.5 323.1 273.5 331.1C265.5 339.1 154.4 350.1 118.9 314.7Z" fill="#EFF6F5"/>
<path d="M359.2 231.3C359.2 231.3 367.2 250.7 363.7 261C360.2 271.3 352.2 278.3 348.2 287.1C344.2 295.9 326.5 302.1 323.9 303.7C321.2 305.3 334.2 290.8 344.3 284C354.4 277.2 358.7 271.2 355.7 261.2C352.7 251.2 356.1 229.6 359.2 231.3Z" fill="white"/>
<path d="M37.5 371.3C37.5 371.3 80 368.5 107.9 338.5C127.4 317.6 140.3 326.5 152.7 330.2C174.7 336.9 170.5 288.7 202.1 311.2V371.2H37.5V371.3Z" fill="#A9A2A2"/>
<path d="M202.2 321.3V371.3H53C53 371.3 69.1 335.3 100.7 343.3C116.5 347.3 118 361.6 133.7 355.3C149.4 349 152.5 329.8 178.8 338.1C197.8 344.2 202.2 321.3 202.2 321.3Z" fill="#C6C1C1"/>
<path d="M196.2 311.3C196.2 311.3 201.2 353.8 177.9 356.8C154.6 359.8 152.3 342.3 133.1 342.8C113.3 343.3 102.9 371.7 77 357.6C44.5 339.8 53 371.4 6.5 371.4H209.3V311.4H196.2V311.3Z" fill="#E2E0E0"/>
<path d="M381.2 371.3C381.2 371.3 338.7 368.5 310.8 338.5C291.3 317.6 278.4 326.5 266 330.2C244 336.9 248.2 288.7 216.6 311.2V371.2H381.2V371.3Z" fill="#A9A2A2"/>
<path d="M216.5 321.3V371.3H365.7C365.7 371.3 349.6 335.3 317.9 343.3C302.1 347.3 300.6 361.6 284.9 355.3C269.2 349 266.1 329.8 239.8 338.1C221 344.2 216.5 321.3 216.5 321.3Z" fill="#C6C1C1"/>
<path d="M222.5 311.3C222.5 311.3 217.5 353.8 240.8 356.8C264.1 359.8 266.4 342.3 285.6 342.8C305.4 343.3 315.8 371.7 341.7 357.6C374.2 339.8 365.7 371.4 412.2 371.4H209.4V311.4H222.5V311.3Z" fill="#E2E0E0"/>
<path d="M281.5 19.9C281.5 19.9 321.6 19.2 336.3 34C351 48.8 355.4 75.5 361.4 82.7C367.4 89.8999 379.3 113.4 379.3 113.4C379.3 113.4 370.1 88.2 368.4 71.8C366.7 55.4 372.1 52.5 358.7 34.8C345.3 17.1 343 10.5 329.8 7.19995C316.7 3.99995 260 12.6 281.5 19.9Z" fill="#EFF6F5"/>
<path d="M30.2 137.5C30.2 137.5 19.5 152.9 20.2 163.3C20.9 173.7 16.2 216.3 30.2 220.5C44.2 224.7 32.2 217.5 30.2 192C28.2 166.5 49.5 119.7 30.2 137.5Z" fill="#EFF6F5"/>
<path d="M119.9 96.8C119.9 96.8 82.1 122.8 73.6 142.1C65.1 161.4 60.6 183.6 61.6 193.2C62.6 202.8 73.1 227.8 73.1 227.8C73.1 227.8 62.6 188.3 67.1 177.5C71.6 166.7 71.1 158.3 76.1 149C81.1 139.7 85.6 132.2 97.1 129.2C108.6 126.2 130.3 89.1 119.9 96.8Z" fill="white"/>
<path d="M376.499 302.208C379.89 297.034 377.771 289.65 371.766 285.714C365.761 281.778 358.144 282.781 354.753 287.955C351.362 293.128 353.481 300.513 359.486 304.449C365.491 308.385 373.108 307.382 376.499 302.208Z" fill="#EBA920"/>
<path d="M64.4 330.3C69.3706 330.3 73.4 326.271 73.4 321.3C73.4 316.329 69.3706 312.3 64.4 312.3C59.4295 312.3 55.4 316.329 55.4 321.3C55.4 326.271 59.4295 330.3 64.4 330.3Z" fill="#EBA920"/>
<path d="M339.5 325.8C341.985 325.8 344 323.785 344 321.3C344 318.815 341.985 316.8 339.5 316.8C337.015 316.8 335 318.815 335 321.3C335 323.785 337.015 325.8 339.5 325.8Z" fill="#EBA920"/>
<path d="M101.4 309.8C103.885 309.8 105.9 307.785 105.9 305.3C105.9 302.815 103.885 300.8 101.4 300.8C98.9147 300.8 96.9 302.815 96.9 305.3C96.9 307.785 98.9147 309.8 101.4 309.8Z" fill="#EBA920"/>
<path d="M120.1 276.3C117.1 277.2 114.1 275 114.1 271.8V243.1C114.1 232.1 118.6 221.6 126.6 214L178.9 164.6V258.2C178.9 258.2 140.3 243.2 121.9 274.8C121.4 275.6 120.8 276.1 120.1 276.3Z" fill="#B0D3CE"/>
<path d="M121.5 262.5V243.1C121.5 234.2 125.2 225.6 131.7 219.5L170.5 182.9L171.2 183.6L132.4 220.2C126.1 226.1 122.5 234.5 122.5 243.1V260C131.7 250.8 143.6 246.2 158.1 246.2C163 246.2 174 248 178 249.7L177.6 250.6C173.7 248.9 162.9 247.2 158.1 247.2C143.4 247.2 131.4 252 122.3 261.6L121.5 262.5Z" fill="#DFEDEB"/>
<path d="M298.7 276.3C301.7 277.2 304.7 275 304.7 271.8V243.1C304.7 232.1 300.2 221.6 292.2 214L239.9 164.7V258.3C239.9 258.3 278.5 243.3 296.9 274.9C297.3 275.6 297.9 276.1 298.7 276.3Z" fill="#B0D3CE"/>
<path d="M297.2 262.5L296.3 261.6C287.2 252.1 275.2 247.2 260.5 247.2C255.7 247.2 244.9 248.9 241 250.6L240.6 249.7C244.6 248 255.6 246.2 260.5 246.2C275 246.2 287 250.8 296.1 260V243.1C296.1 234.5 292.5 226.1 286.2 220.2L247.4 183.6L248.1 182.9L286.9 219.5C293.4 225.6 297.1 234.2 297.1 243.1V262.5H297.2Z" fill="#DFEDEB"/>
<path d="M251.1 161.2C251.1 206.4 244.6 247.5 234.1 278.1H184.8C174.2 247.5 167.8 206.3 167.8 161.2C167.8 87.2 185.2 24.1 209.5 0C233.7 24.1 251.1 87.2 251.1 161.2Z" fill="white"/>
<path d="M229.3 161.2C229.3 206.4 226.2 247.5 221.2 278.1H197.6C192.5 247.5 189.5 206.3 189.5 161.2C189.5 87.2 197.8 24.1 209.4 0C221 24.1 229.3 87.2 229.3 161.2Z" fill="#EFF6F5"/>
<path d="M239.9 258.3C238.1 265.3 236.1 272 234 278.2H184.7C182.5 272 180.6 265.3 178.8 258.3H239.9Z" fill="#B0D3CE"/>
<path d="M170.6 109.9C182.6 112.6 195.7 114.1 209.4 114.1C223.1 114.1 236.2 112.6 248.2 109.9C242.3 59 227.9 18.3 209.4 0.0999756C190.9 18.3 176.5 59 170.6 109.9Z" fill="#B0D3CE"/>
<path d="M226.3 113.3C220.8 113.8 215.1 114.1 209.4 114.1C203.6 114.1 198 113.8 192.5 113.3C194.9 60.8 201.3 18.7 209.4 0C217.5 18.7 223.8 60.8 226.3 113.3Z" fill="#D0E5E2"/>
<path d="M209.4 139.1C223.207 139.1 234.4 127.907 234.4 114.1C234.4 100.293 223.207 89.1 209.4 89.1C195.593 89.1 184.4 100.293 184.4 114.1C184.4 127.907 195.593 139.1 209.4 139.1Z" fill="#232323"/>
<path d="M209.4 132.6C199.2 132.6 190.9 124.3 190.9 114.1H191.9C191.9 123.7 199.8 131.6 209.4 131.6C219 131.6 226.9 123.7 226.9 114.1H227.9C227.9 124.3 219.6 132.6 209.4 132.6Z" fill="#FBEED2"/>
<path d="M196.2 258.3C197 265.3 197.8 271.9 198.7 278.2H220C220.9 272 221.8 265.3 222.5 258.3H196.2Z" fill="#D0E5E2"/>
<path d="M194.8 295.1V289.6C194.8 289.6 190.3 285.9 189.5 278.2H229.2C228.4 285.9 223.9 289.6 223.9 289.6V295.1C228.4 299.6 230.4 306 231.2 311.3H187.6C188.4 306 190.3 299.6 194.8 295.1Z" fill="#232323"/>
<path d="M212.8 258.3H205.9V175.1C205.9 173.2 207.4 171.6 209.4 171.6C211.3 171.6 212.9 173.1 212.9 175.1V258.3H212.8Z" fill="#B0D3CE"/>
<path d="M473.6 231.9C458.4 231.9 438.3 222.9 438 222.8L438.4 221.9C438.6 222 462 232.5 477.1 230.8L477.2 231.8C476.2 231.8 474.9 231.9 473.6 231.9Z" fill="#232323"/>
<path d="M491.65 227.412L484.914 229.657L485.231 230.605L491.966 228.36L491.65 227.412Z" fill="#232323"/>
<path d="M18.7001 239.4C14.3001 239.4 6.10005 228.1 3.80005 220C1.30005 211.5 0.300049 196.8 0.300049 196.7L1.30005 196.6C1.30005 196.7 2.30005 211.4 4.80005 219.7C7.30005 228.2 15.5 238.4 18.8 238.4C18.9 238.4 18.9 238.4 19 238.4L19.1 239.4C19 239.4 18.9001 239.4 18.7001 239.4Z" fill="#232323"/>
<path d="M52.7 91.7L51.8 91.2C52.4 90.3 66 68 79.1 64C85.5 62 90.4 58.6 94.8 55.5C99.5 52.3 103.5 49.5 108.2 48.9L108.3 49.9C103.9 50.4 99.9 53.1 95.4 56.3C91 59.4 85.9 62.9 79.4 64.9C66.8 68.8 52.9 91.4 52.7 91.7Z" fill="#232323"/>
<path d="M117.8 46.9L117.7 45.9C117.8 45.9 123.4 45.4 126.5 44.4C129.6 43.4 135.7 40.3 135.8 40.3L136.2 41.2C135.9 41.3 129.9 44.3 126.7 45.3C123.7 46.4 118.1 46.9 117.8 46.9Z" fill="#232323"/>
<path d="M378.5 321.8L378.2 320.9C378.3 320.9 389 316.9 391.4 311.2L392.3 311.6C389.7 317.6 378.9 321.6 378.5 321.8Z" fill="#232323"/>
<path d="M340.5 223.6C342.4 231.3 354.2 235 366.9 231.9C379.6 228.8 388.4 220 386.5 212.3L385.3 207.5C383.4 199.8 371.6 196.1 358.9 199.2C346.2 202.3 337.4 211.1 339.3 218.8L340.5 223.6Z" fill="#B07F18"/>
<path d="M365.704 227.091C378.413 223.964 387.176 215.169 385.276 207.447C383.376 199.725 371.533 195.999 358.823 199.126C346.114 202.253 337.351 211.048 339.251 218.771C341.151 226.493 352.994 230.218 365.704 227.091Z" fill="#EFBA4D"/>
<path d="M364.963 224.081C374.938 221.627 381.815 214.725 380.324 208.665C378.833 202.605 369.539 199.682 359.564 202.137C349.589 204.591 342.712 211.493 344.203 217.552C345.694 223.612 354.989 226.535 364.963 224.081Z" fill="#EBA920"/>
<path d="M371 216.1L371.5 218.2L356.5 221.9L356.1 220.1L356.4 219.9C359.2 217.8 359.2 216.3 358.6 214.7L355.1 215.6L354.6 213.5L357.7 212.7C357 211.4 356.5 210.1 357.2 208.5C357.7 207.4 358.7 206.5 360.1 205.8C363.1 204.3 367 204.4 367.5 204.4L366.5 206.6C365.7 206.6 363.3 206.7 361.8 207.4C361.2 207.7 360.8 208.1 360.6 208.6C360.1 209.7 360.6 210.7 361.2 211.9L366.3 210.6L366.8 212.7L362.1 213.8C362.6 215.1 362.8 216.6 361.6 218.4L371 216.1Z" fill="#B07F18"/>
</svg>
