<svg width="492" height="658" viewBox="0 0 492 658" fill="none" xmlns="http://www.w3.org/2000/svg">
<g clip-path="url(#clip0)">
<path d="M226.57 576.791C226.57 576.791 212.477 599.613 185.876 580.206C159.275 560.799 137.343 541.059 123.25 546.057C109.157 551.054 60.7077 528.482 61.2081 502.995C61.7084 477.508 40.9444 414.373 83.1396 398.132C125.418 381.807 138.51 305.928 224.569 304.596C310.627 303.263 318.549 302.264 346.902 325.085C375.254 347.907 420.618 374.727 420.535 400.714C420.535 426.784 440.215 551.137 381.008 573.293C321.801 595.448 218.565 639.759 164.445 625.267C164.445 625.267 221.4 598.947 263.679 595.365C305.957 591.783 350.321 560.05 355.324 556.218C360.327 552.387 383.927 496.249 378.506 484.754C373.086 473.26 362.329 545.39 330.39 554.886C298.285 564.464 258.258 585.453 226.57 576.791Z" fill="#EFF6F5"/>
<path d="M97.6494 420.454C97.6494 420.454 87.9762 439.611 91.9789 463.015C95.9816 486.42 101.819 499.247 111.242 506.993C120.665 514.739 155.022 525.734 163.194 533.563C171.283 541.392 203.138 551.387 224.068 547.056C244.999 542.725 201.97 540.476 180.122 527.066C158.274 513.656 155.605 517.238 135.342 507.659C115.078 498.081 100.651 469.762 97.6494 420.454Z" fill="white"/>
<path d="M311.211 385.555C311.211 385.555 339.563 392.884 343.149 419.371C346.735 445.774 335.31 488.503 316.214 495.999C305.624 500.163 285.11 514.906 278.105 512.907C271.1 510.908 303.205 495.166 312.628 485.837C322.051 476.592 334.226 452.271 322.385 431.531C311.544 412.541 296.284 395.3 311.211 385.555Z" fill="white"/>
<path d="M393.934 540.643L393.6 539.893C414.197 531.814 425.872 511.158 432.043 495.332C439.047 477.258 440.632 460.767 439.131 457.768C437.213 453.853 437.296 438.694 437.296 424.035C437.38 413.957 437.38 404.462 436.796 399.464C435.295 387.304 421.202 364.982 421.035 364.732L421.702 364.315C422.286 365.232 436.129 386.971 437.546 399.381C438.13 404.462 438.13 414.04 438.047 424.118C437.963 437.945 437.88 453.687 439.798 457.435C441.549 460.933 439.548 478.008 432.71 495.666C426.539 511.657 414.781 532.48 393.934 540.643Z" fill="#232323"/>
<path d="M382.803 543.325L372.875 546.495L373.129 547.288L383.057 544.118L382.803 543.325Z" fill="#232323"/>
<path d="M63.1261 624.184L62.7091 623.434C64.3769 622.518 104.07 599.946 123.25 602.611C143.681 605.36 168.281 605.027 177.954 601.779L178.204 602.528C167.197 606.193 141.012 605.776 123.083 603.361C104.321 600.862 63.543 623.934 63.1261 624.184Z" fill="#232323"/>
<path d="M204.094 595.143L188.931 599.121L189.143 599.926L204.306 595.949L204.094 595.143Z" fill="#232323"/>
<path d="M73.8 489.502C73.7166 489.419 68.5464 480.507 66.545 472.594C64.5437 464.765 66.3783 441.193 66.4616 440.277L67.2955 440.36C67.2955 440.61 65.3776 464.681 67.3789 472.427C69.3803 480.173 74.4671 489.002 74.5505 489.086L73.8 489.502Z" fill="#232323"/>
<path d="M206.473 421.953C206.473 421.953 198.301 441.11 200.886 453.52C205.222 474.343 222.984 481.839 226.82 483.921C230.656 486.004 263.428 489.669 268.849 484.921C274.352 480.173 279.439 464.931 269.599 466.264C259.676 467.596 248.835 473.51 239.329 474.176C229.822 474.843 207.891 460.267 207.307 450.855C206.89 441.61 206.14 433.281 206.473 421.953Z" fill="white"/>
<path d="M487.83 320.504L88.0596 290.519L147.433 433.697L487.83 320.504Z" fill="#849E9B"/>
<path d="M112.409 224.969L205.222 112.11C208.391 108.279 213.228 106.28 218.148 106.779L363.663 121.022L112.409 224.969Z" fill="#A0A684"/>
<path d="M487.83 320.504L88.0596 290.519L131.589 232.799L487.83 320.504Z" fill="#B0D3CE"/>
<path d="M232.557 50.4531L199.935 67.227L211.232 89.147L243.855 72.3732L232.557 50.4531Z" fill="#F7DDA6"/>
<path d="M217.564 30.4846L192.38 43.3947C190.296 44.4775 189.545 46.9762 190.546 48.9752L199.885 67.1327L232.491 50.3911L223.151 32.2337C222.15 30.2347 219.565 29.4851 217.564 30.4846Z" fill="#FBEED2"/>
<path d="M243.825 72.3684L211.203 89.1423L222.5 111.062L255.123 94.2885L243.825 72.3684Z" fill="#F3CB79"/>
<path d="M266.436 116.161L233.813 132.935L245.111 154.855L277.733 138.081L266.436 116.161Z" fill="#EBA920"/>
<path d="M255.167 94.2456L222.545 111.019L233.843 132.939L266.465 116.166L255.167 94.2456Z" fill="#EFBA4D"/>
<path d="M193.789 69.8977L167.195 95.1482L184.202 113.018L210.796 87.767L193.789 69.8977Z" fill="#A7A7A7"/>
<path d="M173.784 54.8889L153.27 74.379C151.603 75.9615 151.519 78.6268 153.104 80.2927L167.197 95.1185L193.798 69.8813L179.705 55.0555C178.037 53.3896 175.452 53.3063 173.784 54.8889Z" fill="#D3D3D3"/>
<path d="M210.781 87.707L184.187 112.958L201.194 130.827L227.788 105.576L210.781 87.707Z" fill="#7B7B7B"/>
<path d="M244.705 123.383L218.111 148.633L235.117 166.503L261.711 141.252L244.705 123.383Z" fill="#232323"/>
<path d="M227.773 105.516L201.179 130.767L218.186 148.636L244.78 123.386L227.773 105.516Z" fill="#4F4F4F"/>
<path d="M363.663 120.939L414.948 244.626C416.199 247.708 416.032 251.123 414.614 253.871C414.531 254.038 414.447 254.205 414.281 254.371C413.113 256.453 411.279 258.119 408.944 259.119L178.204 354.654C175.869 355.653 173.367 355.736 171.032 355.153C170.866 355.07 170.616 355.07 170.449 354.987C167.447 353.987 164.945 351.822 163.694 348.657L112.409 224.969L363.663 120.939Z" fill="#A0A684"/>
<path d="M351.321 53.3063C351.822 49.2251 348.903 45.5602 344.9 45.0605L279.273 36.898C275.186 36.3982 271.517 39.3134 271.017 43.3114L269.933 51.7238L350.321 61.7187L351.321 53.3063Z" fill="#B0D3CE"/>
<path d="M269.915 51.7428L256.159 162.505L336.515 172.46L350.271 61.6986L269.915 51.7428Z" fill="#EFF6F5"/>
<path d="M338.896 68.4653L277.104 60.8025L305.04 88.5385L338.896 68.4653Z" fill="#D0E5E2"/>
<path d="M332.976 116.358L338.896 68.4653L305.04 88.5385L332.976 116.358Z" fill="#DFEDEB"/>
<path d="M305.04 88.5385L271.184 108.695L332.976 116.358L305.04 88.5385Z" fill="#D0E5E2"/>
<path d="M277.104 60.8025L271.184 108.695L305.04 88.5385L277.104 60.8025Z" fill="#DFEDEB"/>
<path d="M284.928 43.1827L279.383 42.4957L278.695 48.0338L284.24 48.7208L284.928 43.1827Z" fill="#849E9B"/>
<path d="M94.564 140.762L155.689 288.187C157.857 293.518 163.194 296.6 168.614 296.183L104.904 142.678L94.564 140.762Z" fill="#EFBA4D"/>
<path d="M123.5 134.932L187.127 288.437C191.046 284.856 192.547 279.025 190.379 273.778L129.254 126.353L123.5 134.932Z" fill="#F3CB79"/>
<path d="M123.417 135.015L111.909 133.599L104.988 142.678L168.698 296.183C170.115 296.1 171.533 295.767 172.867 295.184L183.374 290.853C184.792 290.27 186.126 289.437 187.21 288.354L123.5 134.932L123.417 135.015Z" fill="#EBA920"/>
<path d="M127.753 122.938L100.401 105.946L93.1464 137.264L100.401 105.946L127.753 122.938Z" fill="#EBA920"/>
<path d="M100.401 105.946L93.1464 137.264L94.564 140.762L104.988 142.678L111.909 133.599L123.417 135.015L129.254 126.436L127.753 122.938L100.401 105.946Z" fill="#FBEED2"/>
<path d="M186.293 263.95L190.379 273.778C193.131 280.441 189.962 288.104 183.291 290.853L172.784 295.184C166.112 297.932 158.441 294.767 155.689 288.104L151.603 278.276L186.293 263.95Z" fill="#EABBBB"/>
<path d="M97.566 118.107L111.075 112.526L100.401 105.946L97.566 118.107Z" fill="#232323"/>
<path d="M358.66 201.565L172.951 278.359L133.674 183.74C131.005 177.327 134.091 170.08 140.428 167.415L302.955 100.199C309.376 97.5339 316.631 100.616 319.3 106.946L358.66 201.565Z" fill="#FBF1F1"/>
<path d="M318.883 105.613C316.548 99.9494 310.043 97.284 304.373 99.6162L139.261 167.915C133.591 170.247 130.922 176.744 133.257 182.408L137.093 191.736L322.719 114.942L318.883 105.613Z" fill="#EABBBB"/>
<path d="M307.125 190.154L248.085 214.641L265.346 172.912L307.125 190.154Z" fill="#F7E4E4"/>
<path d="M326.471 182.158L282.942 200.149L295.7 169.414L326.471 182.158Z" fill="#F7E4E4"/>
<path d="M287.195 165.25C292.122 165.25 296.117 161.259 296.117 156.337C296.117 151.415 292.122 147.425 287.195 147.425C282.267 147.425 278.272 151.415 278.272 156.337C278.272 161.259 282.267 165.25 287.195 165.25Z" fill="#F7E4E4"/>
<path d="M215.029 179.131L166.799 199.085L168.076 202.163L216.305 182.209L215.029 179.131Z" fill="#EABBBB"/>
<path d="M218.941 188.541L170.712 208.495L171.988 211.573L220.218 191.619L218.941 188.541Z" fill="#EABBBB"/>
<path d="M198.671 207.964L174.557 217.941L175.833 221.019L199.948 211.042L198.671 207.964Z" fill="#EABBBB"/>
<path d="M158.941 175.245C160.645 175.245 162.026 173.865 162.026 172.163C162.026 170.461 160.645 169.081 158.941 169.081C157.237 169.081 155.856 170.461 155.856 172.163C155.856 173.865 157.237 175.245 158.941 175.245Z" fill="#FBF1F1"/>
<path d="M169.281 170.997C170.985 170.997 172.367 169.617 172.367 167.915C172.367 166.213 170.985 164.833 169.281 164.833C167.577 164.833 166.196 166.213 166.196 167.915C166.196 169.617 167.577 170.997 169.281 170.997Z" fill="#B08C8C"/>
<path d="M179.622 166.666C181.326 166.666 182.707 165.286 182.707 163.584C182.707 161.882 181.326 160.502 179.622 160.502C177.918 160.502 176.536 161.882 176.536 163.584C176.536 165.286 177.918 166.666 179.622 166.666Z" fill="#B08C8C"/>
<path d="M363.663 120.939L414.948 244.626C416.199 247.708 416.032 251.123 414.614 253.871C414.531 254.038 414.447 254.205 414.281 254.371L265.763 239.878L278.772 224.053L363.663 120.939Z" fill="#D5DDB0"/>
<path d="M265.763 239.962L171.032 355.153C170.866 355.07 170.616 355.07 170.449 354.987C167.447 353.987 164.945 351.822 163.694 348.657L112.409 224.969L245.5 237.963L265.763 239.962Z" fill="#D5DDB0"/>
<path d="M414.614 253.955C414.531 254.121 414.447 254.288 414.281 254.454C413.113 256.537 411.279 258.203 408.944 259.202L178.204 354.654C175.869 355.653 173.367 355.736 171.032 355.153C170.866 355.07 170.616 355.07 170.449 354.987L245.416 237.963L253.088 225.969C255.59 222.054 260.26 220.138 264.846 221.138L278.772 224.22L414.614 253.955Z" fill="#DDE4C0"/>
<path d="M4.16943 401.297L487.83 320.504L64.2935 321.754L4.16943 401.297Z" fill="#B0D3CE"/>
<path d="M437.463 266.865L436.963 266.199C446.219 259.868 435.545 242.877 435.462 242.71L436.129 242.294C436.629 242.877 447.386 260.035 437.463 266.865Z" fill="#232323"/>
<path d="M432.776 269.329L427.05 271.841L427.385 272.603L433.111 270.092L432.776 269.329Z" fill="#232323"/>
<path d="M29.3441 1.10004C29.5441 1.30004 29.5441 1.60002 29.4441 1.90002C29.0441 5.10002 28.3441 8.29999 27.0441 11.3C26.7441 11.9 26.3441 12.4 25.9441 12.9C25.5441 13.3 25.1441 13.2 25.0441 12.6C24.9441 11.9 24.9441 11.2 25.1441 10.5C25.6441 8.5 26.0441 6.30002 27.0441 4.40002C27.5441 3.30002 28.3441 2.39999 28.8441 1.29999C28.9441 1.19999 29.1441 1.10004 29.3441 1.10004Z" fill="#735645"/>
<path d="M4.14404 19.6C4.54404 18.8 4.84403 18 5.24403 17.2C6.04403 15.9 6.74404 14.5 7.64404 13.3C8.84404 11.7 9.94403 10.1 11.244 8.60004C11.644 8.10004 11.644 7.30002 12.344 6.90002C12.444 7.80002 12.144 8.49999 11.944 9.29999C10.744 12.6 8.94403 15.5 6.24403 17.9C5.54403 18.5 5.04404 19.2 4.14404 19.6Z" fill="#735645"/>
<path d="M12.944 16.6C13.044 17.2 12.744 17.5 12.544 17.8C10.944 20.5 8.944 22.8 6.544 24.8C6.444 24.9 6.34401 25 6.14401 25.1C5.84401 25.3 5.644 25.4 5.344 25.1C5.044 24.8 5.144 24.6 5.344 24.3C5.644 23.9 5.944 23.5 6.244 23.1C7.544 21.4 8.744 19.7 10.344 18.3C11.144 17.6 11.844 17 12.944 16.6Z" fill="#735645"/>
<path d="M6.94409 31.6C6.74409 30.9 7.14409 30.5 7.44409 30.1C8.44409 28.7 9.74408 27.5 10.7441 26.1C12.1441 24.1 13.8441 22.4 14.9441 20.2C15.1441 19.9 15.3441 19.5 15.6441 19.4C16.0441 19.5 16.0441 19.7 15.9441 20C15.7441 20.5 15.5441 21 15.2441 21.5C14.1441 23.6 12.9441 25.6 11.1441 27.2C9.94409 28.3 9.04409 29.6 7.94409 30.8C7.74409 31.1 7.54409 31.5 6.94409 31.6Z" fill="#735645"/>
<path d="M18.5441 26.5C19.1441 27.4 18.9441 28 18.7441 28.5C18.2441 29.9 17.3441 30.9 16.4441 31.9C15.2441 33.2 14.1441 34.5 12.4441 35.2C12.0441 34.7 12.2441 34.3 12.5441 33.9C13.1441 32.7 14.0441 31.7 14.9441 30.8C16.1441 29.6 17.7441 28.6 18.5441 26.5Z" fill="#735645"/>
<path d="M15.8441 11.1C15.3441 10.9 15.3441 10.5 15.4441 10.1C15.5441 9.50004 15.7441 9.00002 15.8441 8.40002C16.4441 6.60002 16.8441 4.8 17.3441 3C17.6441 2 18.0441 1 18.6441 0C19.4441 1.5 17.4441 9.30004 15.8441 11.1Z" fill="#735645"/>
<path d="M19.744 10.6C19.644 13.6 19.144 16.3 16.744 18.2C15.844 16.9 17.644 12.3 19.744 10.6Z" fill="#735645"/>
<path d="M25.344 15.1C23.944 18.7 22.744 22.2 20.144 25C19.844 24.7 20.044 24.4 20.144 24.1C20.944 22.2 21.944 20.3 23.044 18.6C23.644 17.7 23.944 16.6 24.444 15.7C24.644 15.5 24.744 15.2 25.344 15.1Z" fill="#735645"/>
<path d="M10.344 37C8.74404 39.5 6.14403 40.8 4.04403 42.8C3.64403 42.1 4.04404 41.8 4.34404 41.5C5.24404 40.4 6.44404 39.4 7.64404 38.6C8.14404 38.2 8.64404 37.9 9.14404 37.5C9.44404 37.3 9.74404 36.9 10.344 37Z" fill="#735645"/>
<path d="M0.644051 26.2C-0.155949 25.4 -0.155952 25.3 0.344048 24.6C0.844048 23.8 1.34405 23 1.84405 22.2C2.04405 21.9 2.24405 21.5 2.64405 21.7C3.04405 21.9 3.04405 22.3 2.94405 22.7C2.54405 24.1 1.64405 25.1 0.644051 26.2Z" fill="#735645"/>
<path d="M1.44409 37.9C2.64409 35.5 4.64409 33.8 6.64409 32.1C5.34409 34.5 3.64409 36.4 1.44409 37.9Z" fill="#735645"/>
<path d="M22.0441 6.10004C21.9441 6.80004 21.9441 7.40002 21.8441 7.90002C20.8441 7.40002 20.9441 7.00004 22.0441 6.10004Z" fill="#735645"/>
<path d="M10.7041 646.5C11.2041 646 11.6041 645.7 12.2041 645.4C14.4041 644.1 16.4041 642.5 18.5041 641.1C20.6041 639.8 22.4041 638 24.9041 637.4C25.9041 637.1 26.8041 636.6 27.6041 636C27.9041 635.7 28.3041 635.5 28.7041 635.4C30.4041 634.9 31.9041 633.9 33.3041 633C33.6041 632.8 33.9041 632.5 34.3041 632.4C34.6041 632.3 35.0041 632.1 35.2041 632.6C34.8041 633.2 34.3041 633.6 33.7041 633.9C32.0041 634.9 30.4041 636 28.8041 637.1C27.0041 638.4 24.9041 639.4 22.9041 640.2C21.0041 641 19.1041 641.9 17.4041 643.2C15.6041 644.5 13.6041 645.5 11.6041 646.4C11.2041 646.6 11.0041 646.7 10.7041 646.5Z" fill="#FF6F54"/>
<path d="M30.004 644.3C29.104 645.3 28.004 646 26.904 646.6C23.604 648.6 20.104 650.4 17.204 653C16.204 653.9 14.804 654.3 13.604 655C11.704 656.1 9.70403 656.9 7.70403 657.7C7.40403 657.8 7.00403 658 6.50403 658C6.60403 657.2 7.20403 657 7.70403 656.6C9.60403 655.3 11.604 654.4 13.604 653.3C14.804 652.6 15.804 651.6 17.104 651C19.704 649.6 22.204 648.2 24.804 646.7C25.904 646.1 27.004 645.4 28.004 644.7C28.704 644.5 29.204 644.2 30.004 644.3Z" fill="#FF6F54"/>
<path d="M19.504 645.5C19.504 646 19.204 646.1 18.904 646.3C16.504 648.4 13.804 649.8 11.004 651.3C8.90405 652.4 6.90405 653.5 4.90405 654.8C4.80405 654.9 4.60405 655 4.40405 655.1C3.20405 655.7 1.90405 656.1 0.80405 657C0.60405 657.2 0.304053 657.3 0.104053 657C-0.0959473 656.7 0.00404966 656.5 0.30405 656.3C1.60405 655.7 2.50405 654.5 3.80405 653.8C5.60405 652.8 7.20405 651.4 9.00405 650.5C11.804 649.1 14.504 647.4 17.404 646.2C18.104 645.9 18.704 645.5 19.504 645.5Z" fill="#FF6F54"/>
<path d="M48.3041 627.4C47.9041 627.9 47.4041 628.2 47.0041 628.4C45.4041 629.3 43.7041 630.2 42.1041 631.2C40.3041 632.3 38.8041 634 37.1041 635.2C36.6041 635.6 36.1041 635.9 35.5041 636.3C33.7041 637.3 32.1041 638.5 30.5041 639.8C30.0041 640.3 29.4041 640.7 28.7041 641.1C28.4041 641.3 28.1041 641.4 27.7041 641.4C27.2041 641.4 27.0041 641.1 27.1041 640.6C27.2041 640.2 27.4041 639.9 27.8041 639.7C31.2041 637.8 34.3041 635.2 37.6041 633.2C40.0041 631.8 42.2041 630.1 44.7041 628.7C45.6041 628.2 46.5041 627.7 47.5041 627.3C47.8041 627.3 48.0041 627.1 48.3041 627.4Z" fill="#FF6F54"/>
<path d="M39.1041 638.8C37.9041 640 36.8041 641 35.3041 641.6C35.4041 640.2 37.3041 638.8 39.1041 638.8Z" fill="#FF6F54"/>
<path d="M25.4041 642.2C25.0041 642.9 24.4041 643.2 23.7041 643.4C23.7041 642.4 24.3041 641.9 25.4041 642.2Z" fill="#FF6F54"/>
</g>
<defs>
<clipPath id="clip0">
<rect width="492" height="658" fill="white"/>
</clipPath>
</defs>
</svg>
