<svg width="600" height="280" viewBox="0 0 600 280" fill="none" xmlns="http://www.w3.org/2000/svg">
<path d="M560.119 248.3H311.019L273.719 73.0996H522.919L560.119 248.3Z" fill="#849E9B"/>
<path d="M560.119 248.3L482.919 261.1H165.419L236.419 248.3H560.119Z" fill="#232323"/>
<path d="M522.919 73.0996H273.719L265.219 113.1H514.419L522.919 73.0996Z" fill="#A0A684"/>
<path d="M265.219 113.1L233.719 261.1H482.919L514.419 113.1H265.219Z" fill="#D5DDB0"/>
<path d="M331.719 94.4998C324.219 93.5998 319.319 83.8998 320.719 72.9998C321.419 67.6998 323.419 62.9998 326.419 59.4998C329.419 55.9998 333.119 54.3998 336.819 54.7998C343.519 55.5998 348.219 63.3998 348.019 73.1998H347.019C347.219 63.8998 342.819 56.5998 336.619 55.8998C333.319 55.4998 329.919 56.9998 327.119 60.1998C324.219 63.4998 322.319 68.0998 321.719 73.0998C320.419 83.4998 324.919 92.6998 331.819 93.4998L331.719 94.4998Z" fill="white"/>
<path d="M390.519 94.4998C383.019 93.5998 378.119 83.8998 379.519 72.9998C380.219 67.6998 382.219 62.9998 385.219 59.4998C388.219 55.9998 391.919 54.3998 395.619 54.7998C402.319 55.5998 407.019 63.3998 406.819 73.1998H405.819C406.019 63.8998 401.619 56.5998 395.419 55.8998C392.119 55.4998 388.719 56.9998 385.919 60.1998C383.019 63.4998 381.119 68.0998 380.519 73.0998C379.219 83.4998 383.719 92.6998 390.619 93.4998L390.519 94.4998Z" fill="white"/>
<path d="M449.319 94.4998C441.819 93.5998 436.919 83.8998 438.319 72.9998C439.019 67.6998 441.019 62.9998 444.019 59.4998C447.019 55.9998 450.719 54.3998 454.419 54.7998C461.119 55.5998 465.819 63.3998 465.619 73.1998H464.619C464.819 63.8998 460.419 56.5998 454.219 55.8998C450.919 55.4998 447.519 56.9998 444.719 60.1998C441.819 63.4998 439.919 68.0998 439.319 73.0998C438.019 83.4998 442.519 92.6998 449.419 93.4998L449.319 94.4998Z" fill="white"/>
<path d="M451.419 238.3H270.419L294.619 133.3H475.619L451.419 238.3ZM271.719 237.3H450.719L474.519 134.3H295.519L271.719 237.3Z" fill="#232323"/>
<path d="M354.522 133.711L330.557 237.69L331.532 237.915L355.497 133.935L354.522 133.711Z" fill="#232323"/>
<path d="M414.524 133.708L390.559 237.687L391.533 237.912L415.498 133.932L414.524 133.708Z" fill="#232323"/>
<path d="M467.019 168H287.019V169H467.019V168Z" fill="#232323"/>
<path d="M459.019 202.7H279.019V203.7H459.019V202.7Z" fill="#232323"/>
<path d="M503.919 119.6H458.619C445.019 119.6 433.919 130.7 433.919 144.3V154.1C433.919 166.3 442.819 176.4 454.519 178.4V195.7L473.319 178.8H503.919C517.519 178.8 528.619 167.7 528.619 154.1V144.3C528.519 130.7 517.419 119.6 503.919 119.6Z" fill="#EABBBB"/>
<path d="M463.019 153.1C465.559 153.1 467.619 151.04 467.619 148.5C467.619 145.959 465.559 143.9 463.019 143.9C460.478 143.9 458.419 145.959 458.419 148.5C458.419 151.04 460.478 153.1 463.019 153.1Z" fill="#B08C8C"/>
<path d="M482.019 153.1C484.559 153.1 486.619 151.04 486.619 148.5C486.619 145.959 484.559 143.9 482.019 143.9C479.478 143.9 477.419 145.959 477.419 148.5C477.419 151.04 479.478 153.1 482.019 153.1Z" fill="#B08C8C"/>
<path d="M501.119 153.1C503.659 153.1 505.719 151.04 505.719 148.5C505.719 145.959 503.659 143.9 501.119 143.9C498.578 143.9 496.519 145.959 496.519 148.5C496.519 151.04 498.578 153.1 501.119 153.1Z" fill="#B08C8C"/>
<path d="M319.219 193.1C319.019 193.1 318.919 193 318.819 192.9C318.719 192.7 318.719 192.4 319.019 192.2C320.519 191.2 322.019 190.2 323.319 189.2C323.519 189 323.819 189.1 324.019 189.3C324.219 189.5 324.119 189.8 323.919 190C322.619 191.1 321.119 192.1 319.519 193.1C319.419 193.1 319.319 193.1 319.219 193.1Z" fill="white"/>
<path d="M274.419 211C259.719 211 242.819 204.3 221.419 189.9C195.819 172.7 181.919 183 169.619 192C163.419 196.6 157.619 200.9 151.219 200.3C144.019 199.7 138.819 196.7 135.719 191.3C124.319 171.5 145.119 127 146.019 125.2C146.119 124.9 146.419 124.8 146.719 125C147.019 125.1 147.119 125.4 146.919 125.7C146.719 126.2 125.419 171.6 136.519 190.9C139.419 196 144.419 198.8 151.319 199.4C157.319 199.9 162.819 195.9 169.019 191.3C180.919 182.5 195.819 171.5 222.019 189.1C270.519 221.7 289.119 210.2 312.819 195.7C313.019 195.6 313.319 195.6 313.519 195.9C313.619 196.1 313.619 196.4 313.319 196.6C300.019 204.8 289.519 210.6 276.019 211C275.419 211 274.919 211 274.419 211Z" fill="white"/>
<path d="M102.919 143.6C129.594 143.6 151.219 121.975 151.219 95.3C151.219 68.6246 129.594 47 102.919 47C76.2434 47 54.6187 68.6246 54.6187 95.3C54.6187 121.975 76.2434 143.6 102.919 143.6Z" fill="#F7DDA6"/>
<path d="M151.219 95.2996C151.219 112.8 141.919 128.1 128.019 136.5C107.319 127.9 92.8188 107.5 92.8188 83.6996C92.8188 69.7996 97.8188 56.9996 106.019 47.0996C131.219 48.7996 151.219 69.6996 151.219 95.2996Z" fill="#D5DDB0"/>
<path d="M206.519 74.1997C207.019 77.2997 207.319 80.4997 207.319 83.6997C207.319 105.1 195.619 123.7 178.219 133.6C184.519 140 193.419 144 203.119 144C222.419 144 238.119 128.3 238.119 109C238.219 90.7997 224.319 75.8997 206.519 74.1997Z" fill="#849E9B"/>
<path d="M151.219 95.2996C151.219 112.8 141.919 128.1 128.019 136.5C107.319 127.9 92.8188 107.5 92.8188 83.6996C92.8188 69.7996 97.8188 56.9996 106.019 47.0996C131.219 48.7996 151.219 69.6996 151.219 95.2996Z" fill="#F3CB79"/>
<path d="M155.219 130.9C186.147 130.9 211.219 105.828 211.219 74.8999C211.219 43.972 186.147 18.8999 155.219 18.8999C124.291 18.8999 99.2188 43.972 99.2188 74.8999C99.2188 105.828 124.291 130.9 155.219 130.9Z" fill="#EBA920"/>
<path d="M180.719 41.8L187.419 48.5C188.719 49.8 189.419 51.5 189.419 53.4C189.119 66.7 183.319 80.7 172.219 91.8C161.119 102.9 147.019 108.8 133.819 109C132.019 109 130.219 108.3 128.919 107L122.219 100.3C120.919 99 120.919 96.8 122.219 95.5L131.619 86.1C132.919 84.8 135.119 84.8 136.419 86.1L145.119 94.8C150.419 90.9 156.019 86.3 161.319 80.9C166.719 75.5 171.419 70 175.219 64.7L166.519 56C165.219 54.7 165.219 52.5 166.519 51.2L175.919 41.8C177.219 40.4 179.319 40.4 180.719 41.8Z" fill="white"/>
<path d="M46.3187 64.5997C46.2187 64.5997 46.1187 64.5997 46.1187 64.4997C45.9187 64.3997 45.8187 64.0997 45.9187 63.7997C50.4187 55.8997 58.3187 45.3997 70.3187 40.2997C70.6187 40.1997 70.8187 40.2997 71.0187 40.5997C71.1187 40.8997 71.0187 41.0997 70.7187 41.2997C58.9187 46.3997 51.2187 56.6997 46.8187 64.3997C46.7187 64.4997 46.5187 64.5997 46.3187 64.5997Z" fill="white"/>
<path d="M40.4188 77.6997C40.3188 77.6997 40.3188 77.6997 40.2188 77.6997C39.9188 77.5997 39.8188 77.2997 39.9188 77.0997C40.3188 75.8997 41.0188 73.9997 42.0188 71.5997C42.1188 71.2997 42.4188 71.1997 42.7188 71.2997C43.0188 71.3997 43.1188 71.6997 43.0188 71.9997C42.0188 74.2997 41.3188 76.1997 40.9188 77.3997C40.8188 77.5997 40.6188 77.6997 40.4188 77.6997Z" fill="white"/>
<path d="M61.1187 119.6C61.1187 119.6 71.8187 143.9 121.119 154.9C121.119 154.9 94.4187 142.1 88.9187 120.7L61.1187 119.6Z" fill="#F7DDA6"/>
</svg>
